<svg xmlns="http://www.w3.org/2000/svg" viewBox="0 0 833.51 222.75"><defs><style>.cls-1{font-size:87.14px;font-family:MachPro, Mach Pro;}.cls-1,.cls-3{fill:#fff;}.cls-2{letter-spacing:-0.01em;}.cls-4{fill:#5aa779;}.cls-5{fill:#8b8b8b;}</style></defs><title>Asset 4</title><g id="Layer_2" data-name="Layer 2"><g id="logo"><text class="cls-1" transform="translate(226.07 142.78)">H<tspan class="cls-2" x="62.22" y="0">A</tspan><tspan x="119.82" y="0">CKER BRIEF</tspan></text><path class="cls-3" d="M0,69.35V165a10,10,0,0,0,5,8.66l82.79,47.8a10,10,0,0,0,10,0l82.79-47.8a10,10,0,0,0,5-8.66V69.35a10,10,0,0,0-5-8.66L97.79,12.9a10,10,0,0,0-10,0L5,60.69A10,10,0,0,0,0,69.35Z"/><rect class="cls-4" x="48.84" y="74.57" width="10.71" height="85.71" rx="2" ry="2"/><rect class="cls-4" x="62.76" y="107.25" width="78" height="9.64" rx="2" ry="2"/><path class="cls-4" d="M116.51,74.57h9.9a.43.43,0,0,1,.43.43v6a.43.43,0,0,1-.43.43H97.9a.42.42,0,0,1-.42-.43V75a.42.42,0,0,1,.42-.43h18.61"/><path class="cls-4" d="M130.26,151.71v6.58a2,2,0,0,1-2,2H99.48a2,2,0,0,1-2-2v-4.58a2,2,0,0,1,2-2Z"/><rect class="cls-4" x="82.48" y="74.57" width="10.71" height="28.93" rx="2" ry="2"/><rect class="cls-4" x="82.48" y="120.64" width="10.71" height="39.64" rx="2" ry="2"/><path class="cls-4" d="M126.88,103.5h-2.45c-.76,0-.7-.73,0-1.72,5.28-7.44,4.64-18-1.94-25.48-.88-1-.54-1.73.9-1.73h4.55a5.44,5.44,0,0,1,4,1.73c5.28,7.43,4.64,18-1.94,25.48A5.26,5.26,0,0,1,126.88,103.5Z"/><path class="cls-4" d="M129.84,160.29h-3.43c-.83,0-.79-.74,0-1.71,8.21-10.43,7.57-25.8-1.92-36.23-.89-1-.57-1.71.81-1.71H131a5.65,5.65,0,0,1,4,1.71c8.21,10.43,7.57,25.8-1.92,36.23A5.39,5.39,0,0,1,129.84,160.29Z"/><line class="cls-5" x1="427.4" x2="428.22"/><line class="cls-5" x1="424.5" x2="427.4"/><line class="cls-5" x1="417.26" x2="424.5"/><line class="cls-5" x1="414.52" x2="417.26"/></g></g></svg>
